<mxfile host="app.diagrams.net" modified="2023-05-15T15:20:29.667Z" agent="Mozilla/5.0 (Windows NT 10.0; Win64; x64) AppleWebKit/537.36 (KHTML, like Gecko) Chrome/113.0.0.0 Safari/537.36" etag="y1a5xgICropP267xgR8R" version="21.3.2" type="github">
  <diagram name="Página-1" id="UQpVCS9TWCWdouS00qHC">
    <mxGraphModel dx="1434" dy="756" grid="1" gridSize="10" guides="1" tooltips="1" connect="1" arrows="1" fold="1" page="1" pageScale="1" pageWidth="827" pageHeight="1169" math="0" shadow="0">
      <root>
        <mxCell id="0" />
        <mxCell id="1" parent="0" />
        <mxCell id="H-fHm8leBDLQFKmYh_yP-5" value="" style="edgeStyle=orthogonalEdgeStyle;rounded=0;orthogonalLoop=1;jettySize=auto;html=1;" edge="1" parent="1" source="H-fHm8leBDLQFKmYh_yP-1" target="H-fHm8leBDLQFKmYh_yP-2">
          <mxGeometry relative="1" as="geometry" />
        </mxCell>
        <mxCell id="H-fHm8leBDLQFKmYh_yP-1" value="&lt;font style=&quot;vertical-align: inherit;&quot;&gt;&lt;font style=&quot;vertical-align: inherit;&quot;&gt;&lt;font style=&quot;vertical-align: inherit;&quot;&gt;&lt;font style=&quot;vertical-align: inherit;&quot;&gt;Vendedor&lt;/font&gt;&lt;/font&gt;&lt;/font&gt;&lt;/font&gt;" style="shape=umlActor;verticalLabelPosition=bottom;verticalAlign=top;html=1;outlineConnect=0;" vertex="1" parent="1">
          <mxGeometry x="90" y="120" width="40" height="80" as="geometry" />
        </mxCell>
        <mxCell id="H-fHm8leBDLQFKmYh_yP-48" style="edgeStyle=orthogonalEdgeStyle;rounded=0;orthogonalLoop=1;jettySize=auto;html=1;entryX=0;entryY=0.5;entryDx=0;entryDy=0;" edge="1" parent="1" source="H-fHm8leBDLQFKmYh_yP-2" target="H-fHm8leBDLQFKmYh_yP-4">
          <mxGeometry relative="1" as="geometry" />
        </mxCell>
        <mxCell id="H-fHm8leBDLQFKmYh_yP-2" value="&lt;font style=&quot;vertical-align: inherit;&quot;&gt;&lt;font style=&quot;vertical-align: inherit;&quot;&gt;Registrar Venda&lt;/font&gt;&lt;/font&gt;" style="ellipse;whiteSpace=wrap;html=1;" vertex="1" parent="1">
          <mxGeometry x="200" y="120" width="120" height="80" as="geometry" />
        </mxCell>
        <mxCell id="H-fHm8leBDLQFKmYh_yP-46" style="edgeStyle=orthogonalEdgeStyle;rounded=0;orthogonalLoop=1;jettySize=auto;html=1;entryX=0.5;entryY=0;entryDx=0;entryDy=0;" edge="1" parent="1" source="H-fHm8leBDLQFKmYh_yP-3" target="H-fHm8leBDLQFKmYh_yP-2">
          <mxGeometry relative="1" as="geometry" />
        </mxCell>
        <mxCell id="H-fHm8leBDLQFKmYh_yP-3" value="&lt;font style=&quot;vertical-align: inherit;&quot;&gt;&lt;font style=&quot;vertical-align: inherit;&quot;&gt;Cadastrar Cliente&lt;/font&gt;&lt;/font&gt;" style="ellipse;whiteSpace=wrap;html=1;" vertex="1" parent="1">
          <mxGeometry x="390" y="30" width="120" height="80" as="geometry" />
        </mxCell>
        <mxCell id="H-fHm8leBDLQFKmYh_yP-4" value="&lt;font style=&quot;vertical-align: inherit;&quot;&gt;&lt;font style=&quot;vertical-align: inherit;&quot;&gt;Emitir nota fiscal&lt;/font&gt;&lt;/font&gt;" style="ellipse;whiteSpace=wrap;html=1;" vertex="1" parent="1">
          <mxGeometry x="390" y="190" width="120" height="80" as="geometry" />
        </mxCell>
        <mxCell id="H-fHm8leBDLQFKmYh_yP-23" style="edgeStyle=orthogonalEdgeStyle;rounded=0;orthogonalLoop=1;jettySize=auto;html=1;" edge="1" parent="1" source="H-fHm8leBDLQFKmYh_yP-13">
          <mxGeometry relative="1" as="geometry">
            <mxPoint x="405" y="500" as="targetPoint" />
          </mxGeometry>
        </mxCell>
        <mxCell id="H-fHm8leBDLQFKmYh_yP-24" style="edgeStyle=orthogonalEdgeStyle;rounded=0;orthogonalLoop=1;jettySize=auto;html=1;entryX=1;entryY=0.5;entryDx=0;entryDy=0;" edge="1" parent="1" source="H-fHm8leBDLQFKmYh_yP-13" target="H-fHm8leBDLQFKmYh_yP-15">
          <mxGeometry relative="1" as="geometry" />
        </mxCell>
        <mxCell id="H-fHm8leBDLQFKmYh_yP-26" style="edgeStyle=orthogonalEdgeStyle;rounded=0;orthogonalLoop=1;jettySize=auto;html=1;entryX=1;entryY=0.5;entryDx=0;entryDy=0;" edge="1" parent="1" source="H-fHm8leBDLQFKmYh_yP-13" target="H-fHm8leBDLQFKmYh_yP-19">
          <mxGeometry relative="1" as="geometry" />
        </mxCell>
        <mxCell id="H-fHm8leBDLQFKmYh_yP-27" style="edgeStyle=orthogonalEdgeStyle;rounded=0;orthogonalLoop=1;jettySize=auto;html=1;entryX=0;entryY=0.5;entryDx=0;entryDy=0;" edge="1" parent="1" source="H-fHm8leBDLQFKmYh_yP-13" target="H-fHm8leBDLQFKmYh_yP-21">
          <mxGeometry relative="1" as="geometry" />
        </mxCell>
        <mxCell id="H-fHm8leBDLQFKmYh_yP-28" style="edgeStyle=orthogonalEdgeStyle;rounded=0;orthogonalLoop=1;jettySize=auto;html=1;entryX=0;entryY=0.5;entryDx=0;entryDy=0;" edge="1" parent="1" source="H-fHm8leBDLQFKmYh_yP-13" target="H-fHm8leBDLQFKmYh_yP-17">
          <mxGeometry relative="1" as="geometry" />
        </mxCell>
        <mxCell id="H-fHm8leBDLQFKmYh_yP-29" style="edgeStyle=orthogonalEdgeStyle;rounded=0;orthogonalLoop=1;jettySize=auto;html=1;entryX=0;entryY=0.5;entryDx=0;entryDy=0;" edge="1" parent="1" source="H-fHm8leBDLQFKmYh_yP-13" target="H-fHm8leBDLQFKmYh_yP-22">
          <mxGeometry relative="1" as="geometry" />
        </mxCell>
        <mxCell id="H-fHm8leBDLQFKmYh_yP-65" style="edgeStyle=orthogonalEdgeStyle;rounded=0;orthogonalLoop=1;jettySize=auto;html=1;entryX=1;entryY=0.5;entryDx=0;entryDy=0;" edge="1" parent="1" source="H-fHm8leBDLQFKmYh_yP-13" target="H-fHm8leBDLQFKmYh_yP-16">
          <mxGeometry relative="1" as="geometry" />
        </mxCell>
        <mxCell id="H-fHm8leBDLQFKmYh_yP-13" value="&lt;font style=&quot;vertical-align: inherit;&quot;&gt;&lt;font style=&quot;vertical-align: inherit;&quot;&gt;Gerente&lt;/font&gt;&lt;/font&gt;" style="shape=umlActor;verticalLabelPosition=bottom;verticalAlign=top;html=1;outlineConnect=0;" vertex="1" parent="1">
          <mxGeometry x="375" y="550" width="60" height="90" as="geometry" />
        </mxCell>
        <mxCell id="H-fHm8leBDLQFKmYh_yP-15" value="&lt;font style=&quot;vertical-align: inherit;&quot;&gt;&lt;font style=&quot;vertical-align: inherit;&quot;&gt;Cadastrar Fornecedores&lt;/font&gt;&lt;/font&gt;" style="ellipse;whiteSpace=wrap;html=1;" vertex="1" parent="1">
          <mxGeometry x="100" y="555" width="120" height="80" as="geometry" />
        </mxCell>
        <mxCell id="H-fHm8leBDLQFKmYh_yP-16" value="&lt;font style=&quot;vertical-align: inherit;&quot;&gt;&lt;font style=&quot;vertical-align: inherit;&quot;&gt;Cadastrar Vendedores&lt;/font&gt;&lt;/font&gt;" style="ellipse;whiteSpace=wrap;html=1;" vertex="1" parent="1">
          <mxGeometry x="165" y="450" width="120" height="80" as="geometry" />
        </mxCell>
        <mxCell id="H-fHm8leBDLQFKmYh_yP-17" value="&lt;font style=&quot;vertical-align: inherit;&quot;&gt;&lt;font style=&quot;vertical-align: inherit;&quot;&gt;Emitir Ordem&amp;nbsp; de Pagamento&lt;/font&gt;&lt;/font&gt;" style="ellipse;whiteSpace=wrap;html=1;" vertex="1" parent="1">
          <mxGeometry x="605" y="555" width="120" height="80" as="geometry" />
        </mxCell>
        <mxCell id="H-fHm8leBDLQFKmYh_yP-18" value="&lt;font style=&quot;vertical-align: inherit;&quot;&gt;&lt;font style=&quot;vertical-align: inherit;&quot;&gt;Gerar Pagamentos de Comissão&lt;/font&gt;&lt;/font&gt;" style="ellipse;whiteSpace=wrap;html=1;" vertex="1" parent="1">
          <mxGeometry x="345" y="410" width="120" height="80" as="geometry" />
        </mxCell>
        <mxCell id="H-fHm8leBDLQFKmYh_yP-53" style="edgeStyle=orthogonalEdgeStyle;rounded=0;orthogonalLoop=1;jettySize=auto;html=1;entryX=0.5;entryY=0;entryDx=0;entryDy=0;" edge="1" parent="1" source="H-fHm8leBDLQFKmYh_yP-19" target="H-fHm8leBDLQFKmYh_yP-20">
          <mxGeometry relative="1" as="geometry" />
        </mxCell>
        <mxCell id="H-fHm8leBDLQFKmYh_yP-19" value="&lt;font style=&quot;vertical-align: inherit;&quot;&gt;&lt;font style=&quot;vertical-align: inherit;&quot;&gt;Realizar Encomenda&lt;/font&gt;&lt;/font&gt;" style="ellipse;whiteSpace=wrap;html=1;" vertex="1" parent="1">
          <mxGeometry x="165" y="685" width="120" height="80" as="geometry" />
        </mxCell>
        <mxCell id="H-fHm8leBDLQFKmYh_yP-20" value="&lt;font style=&quot;vertical-align: inherit;&quot;&gt;&lt;font style=&quot;vertical-align: inherit;&quot;&gt;Verificar Fornecedores&lt;/font&gt;&lt;/font&gt;" style="ellipse;whiteSpace=wrap;html=1;" vertex="1" parent="1">
          <mxGeometry x="215" y="810" width="120" height="80" as="geometry" />
        </mxCell>
        <mxCell id="H-fHm8leBDLQFKmYh_yP-79" style="edgeStyle=orthogonalEdgeStyle;rounded=0;orthogonalLoop=1;jettySize=auto;html=1;entryX=0;entryY=0.5;entryDx=0;entryDy=0;" edge="1" parent="1" source="H-fHm8leBDLQFKmYh_yP-21" target="H-fHm8leBDLQFKmYh_yP-78">
          <mxGeometry relative="1" as="geometry" />
        </mxCell>
        <mxCell id="H-fHm8leBDLQFKmYh_yP-21" value="&lt;font style=&quot;vertical-align: inherit;&quot;&gt;&lt;font style=&quot;vertical-align: inherit;&quot;&gt;Baixar Pagamentos&lt;/font&gt;&lt;/font&gt;" style="ellipse;whiteSpace=wrap;html=1;" vertex="1" parent="1">
          <mxGeometry x="555" y="450" width="120" height="80" as="geometry" />
        </mxCell>
        <mxCell id="H-fHm8leBDLQFKmYh_yP-22" value="&lt;font style=&quot;vertical-align: inherit;&quot;&gt;&lt;font style=&quot;vertical-align: inherit;&quot;&gt;Registrar Compra&lt;/font&gt;&lt;/font&gt;" style="ellipse;whiteSpace=wrap;html=1;" vertex="1" parent="1">
          <mxGeometry x="555" y="685" width="120" height="80" as="geometry" />
        </mxCell>
        <mxCell id="H-fHm8leBDLQFKmYh_yP-38" value="&lt;font style=&quot;vertical-align: inherit;&quot;&gt;&lt;font style=&quot;vertical-align: inherit;&quot;&gt;extend&lt;/font&gt;&lt;/font&gt;" style="text;html=1;align=center;verticalAlign=middle;resizable=0;points=[];autosize=1;strokeColor=none;fillColor=none;" vertex="1" parent="1">
          <mxGeometry x="300" y="50" width="60" height="30" as="geometry" />
        </mxCell>
        <mxCell id="H-fHm8leBDLQFKmYh_yP-40" value="&lt;font style=&quot;vertical-align: inherit;&quot;&gt;&lt;font style=&quot;vertical-align: inherit;&quot;&gt;include&lt;/font&gt;&lt;/font&gt;" style="text;html=1;align=center;verticalAlign=middle;resizable=0;points=[];autosize=1;strokeColor=none;fillColor=none;rotation=90;" vertex="1" parent="1">
          <mxGeometry x="330" y="170" width="60" height="30" as="geometry" />
        </mxCell>
        <mxCell id="H-fHm8leBDLQFKmYh_yP-44" value="&lt;font style=&quot;vertical-align: inherit;&quot;&gt;&lt;font style=&quot;vertical-align: inherit;&quot;&gt;include&lt;/font&gt;&lt;/font&gt;" style="text;html=1;align=center;verticalAlign=middle;resizable=0;points=[];autosize=1;strokeColor=none;fillColor=none;" vertex="1" parent="1">
          <mxGeometry x="215" y="765" width="60" height="30" as="geometry" />
        </mxCell>
        <mxCell id="H-fHm8leBDLQFKmYh_yP-76" style="edgeStyle=orthogonalEdgeStyle;rounded=0;orthogonalLoop=1;jettySize=auto;html=1;entryX=0;entryY=0.5;entryDx=0;entryDy=0;" edge="1" parent="1" source="H-fHm8leBDLQFKmYh_yP-54" target="H-fHm8leBDLQFKmYh_yP-19">
          <mxGeometry relative="1" as="geometry" />
        </mxCell>
        <mxCell id="H-fHm8leBDLQFKmYh_yP-77" style="edgeStyle=orthogonalEdgeStyle;rounded=0;orthogonalLoop=1;jettySize=auto;html=1;entryX=0;entryY=0.425;entryDx=0;entryDy=0;entryPerimeter=0;" edge="1" parent="1" source="H-fHm8leBDLQFKmYh_yP-54" target="H-fHm8leBDLQFKmYh_yP-15">
          <mxGeometry relative="1" as="geometry" />
        </mxCell>
        <mxCell id="H-fHm8leBDLQFKmYh_yP-54" value="Pesquisar Fornecedor" style="ellipse;whiteSpace=wrap;html=1;" vertex="1" parent="1">
          <mxGeometry x="10" y="620" width="90" height="50" as="geometry" />
        </mxCell>
        <mxCell id="H-fHm8leBDLQFKmYh_yP-68" style="edgeStyle=orthogonalEdgeStyle;rounded=0;orthogonalLoop=1;jettySize=auto;html=1;entryX=0.5;entryY=1;entryDx=0;entryDy=0;" edge="1" parent="1" source="H-fHm8leBDLQFKmYh_yP-55" target="H-fHm8leBDLQFKmYh_yP-2">
          <mxGeometry relative="1" as="geometry" />
        </mxCell>
        <mxCell id="H-fHm8leBDLQFKmYh_yP-73" style="edgeStyle=orthogonalEdgeStyle;rounded=0;orthogonalLoop=1;jettySize=auto;html=1;entryX=0;entryY=0.5;entryDx=0;entryDy=0;" edge="1" parent="1" source="H-fHm8leBDLQFKmYh_yP-55" target="H-fHm8leBDLQFKmYh_yP-16">
          <mxGeometry relative="1" as="geometry" />
        </mxCell>
        <mxCell id="H-fHm8leBDLQFKmYh_yP-55" value="Pesquisar Vendedor" style="ellipse;whiteSpace=wrap;html=1;" vertex="1" parent="1">
          <mxGeometry x="20" y="295" width="90" height="55" as="geometry" />
        </mxCell>
        <mxCell id="H-fHm8leBDLQFKmYh_yP-59" value="extend" style="text;html=1;align=center;verticalAlign=middle;resizable=0;points=[];autosize=1;strokeColor=none;fillColor=none;" vertex="1" parent="1">
          <mxGeometry x="40" y="570" width="60" height="30" as="geometry" />
        </mxCell>
        <mxCell id="H-fHm8leBDLQFKmYh_yP-62" value="extend" style="text;html=1;align=center;verticalAlign=middle;resizable=0;points=[];autosize=1;strokeColor=none;fillColor=none;rotation=-90;" vertex="1" parent="1">
          <mxGeometry x="90" y="680" width="60" height="30" as="geometry" />
        </mxCell>
        <mxCell id="H-fHm8leBDLQFKmYh_yP-70" value="extend" style="text;html=1;align=center;verticalAlign=middle;resizable=0;points=[];autosize=1;strokeColor=none;fillColor=none;rotation=-90;" vertex="1" parent="1">
          <mxGeometry x="120" y="390" width="60" height="30" as="geometry" />
        </mxCell>
        <mxCell id="H-fHm8leBDLQFKmYh_yP-71" value="extend" style="text;html=1;align=center;verticalAlign=middle;resizable=0;points=[];autosize=1;strokeColor=none;fillColor=none;" vertex="1" parent="1">
          <mxGeometry x="190" y="300" width="60" height="30" as="geometry" />
        </mxCell>
        <mxCell id="H-fHm8leBDLQFKmYh_yP-78" value="importar dados" style="ellipse;whiteSpace=wrap;html=1;" vertex="1" parent="1">
          <mxGeometry x="670" y="390" width="90" height="50" as="geometry" />
        </mxCell>
        <mxCell id="H-fHm8leBDLQFKmYh_yP-80" value="include" style="text;html=1;align=center;verticalAlign=middle;resizable=0;points=[];autosize=1;strokeColor=none;fillColor=none;" vertex="1" parent="1">
          <mxGeometry x="610" y="390" width="60" height="30" as="geometry" />
        </mxCell>
      </root>
    </mxGraphModel>
  </diagram>
</mxfile>
